# xmcd CD database file
#
# Track frame offsets:
#	150
#	14731
#	29497
#	43051
#	52965
#	70403
#	88685
#	102194
#	114545
#	133723
#	145497
#	161847
#	175845
#	192685
#	203667
#	215927
#	225553
#	241714
#
# Disc length: 3366 seconds
#
# Revision: 0
# Processed by: cddbd v1.5.2PL0 Copyright (c) Steve Scherf et al.
# Submitted via: ACXtractor (MTCDDB.DLL V2003.07.15)
#
DISCID=100d2412
DTITLE=Keith Jamieson - The Year 2000 Australian Bushman
DYEAR=1999
DGENRE=Country
TTITLE0=The Year 2000 Australaian Bushman
TTITLE1=Dreamtime Country
TTITLE2=Treasured Memories
TTITLE3=Let's all buy Australian
TTITLE4=Coal Minin' Man
TTITLE5=Modern Day Henry Lawson
TTITLE6=Earth Movin' Man
TTITLE7=The Beer with No Pub
TTITLE8=South Blackwater Mine
TTITLE9=Gordonstone
TTITLE10=Country Clowns
TTITLE11=Drought of the 90's
TTITLE12=Winton's Outback Festival
TTITLE13=Road Train Drover
TTITLE14=Kingston Town
TTITLE15=Noccundra Pub
TTITLE16=The Shire of Duaringa
TTITLE17=Aussie Christmas
EXTD=ID3G:   2 YEAR: 1999
EXTT0=
EXTT1=
EXTT2=
EXTT3=
EXTT4=
EXTT5=
EXTT6=
EXTT7=
EXTT8=
EXTT9=
EXTT10=
EXTT11=
EXTT12=
EXTT13=
EXTT14=
EXTT15=
EXTT16=
EXTT17=
PLAYORDER=
